/* XPM */
static char * pokey2_xpm[] = {
"36 49 4 1",
" 	c None",
".	c #000000",
"+	c #FFFFFF",
"@	c #E9A500",
"           ..........               ",
"          .............             ",
"         ................           ",
"         .................          ",
"        ..................          ",
"        ...................         ",
"       .....................        ",
"       ........++.............      ",
"      .........++..............     ",
"     ..+....+..++................   ",
"     .++++++...+.................   ",
"     ....+.+......................  ",
"  ..@@@@@@.++.....................  ",
" .@@@@@@@@.+++..................... ",
"...........++++.................... ",
" .@@@@@@@@.++++.....................",
"  .....@@@.++++.....................",
"      .....+++++....................",
"      .++++++++++...................",
"     .++++++++++++..................",
"     .++++++++++++..................",
"    .+++++++++++++..................",
"    .+++++++++++++..................",
"    .+++++++++++++................. ",
"    .+++++++++++++................. ",
"    .+++++++++++++.....+........... ",
"    .+++++++++++++.....+........... ",
"    .++++++++++++++....+........... ",
"    .++++++++++++++................ ",
"    .++++++++++++++...+............ ",
"    .++++++++++++++...+...........  ",
"    .++++++++++++++...+...........  ",
"    .++++++++++++++..++...........  ",
"    .++++++++++++++++++...........  ",
"    .++++++++++++++++++...........  ",
"    .++++++++++++++++++..........   ",
"     .+++++++++++++++++..........   ",
"     .++++++++++++++++...........   ",
"     .++++++++++++++++...........   ",
"     .++++++++++++++++...........   ",
"      .+++++++++++++++...........   ",
"       ..+++++++++++.............   ",
"       . .++++++++...............   ",
"          ..+++++.+.............    ",
"           ....+.++............     ",
"            ...................     ",
"        ....................        ",
"        ..............   ..         ",
"          . ..                      "};
